{"title":"Formula 1 2013 Monaco Grand Prix - Practice 1 - Sky 720p","uid":8501457,"size":1451588135,"categoryP":"video","categoryS":"hd___tv_shows","magnet":"?xt=urn:btih:490d901474db6cd323b382e1288beed7173e68c3&amp;dn=Formula+1+2013+Monaco+Grand+Prix+-+Practice+1+-+Sky+720p&amp;tr=udp%3A%2F%2Ftracker.openbittorrent.com%3A80&amp;tr=udp%3A%2F%2Fopen.demonii.com%3A1337&amp;tr=udp%3A%2F%2Ftracker.coppersurfer.tk%3A6969&amp;tr=udp%3A%2F%2Fexodus.desync.com%3A6969","seeders":1,"leechers":0,"uploader":"IAMH67","files":5,"time":1369310102,"description":"The Formula 1 crew heads over to Europe for the Monte Carlo Grand Prix. \n\nHere is the first practice session, Free Practice 1. \n\nCredit : IAMH67 capping and upload and Arena Vision + Rojadirecta for providing the feed. Uploaded in less than 30 minutes after airing, the first torrent on the Internet. \n\nQuality : 720p\n\nVideo: MPEG4 Video (H264) 1280x720 25fps [Video]\n\nAudio: MP3 44100Hz stereo 96kbps [Audio]\n\nFull Technical Information :\n\nVideo\n\nID                             : 69 (0x45)\nMenu ID                        : 1 (0x1)\nFormat                         : AVC\nFormat/Info                    : Advanced Video Codec\nFormat profile                 : &lt;a class=&quot;__cf_email__&quot; href=&quot;/cdn-cgi/l/email-protection&quot; data-cfemail=&quot;6028090708202c554e51&quot;&gt;[email&amp;#160;protected]&lt;/a&gt;&lt;script cf-hash='f9e31' type=&quot;text/javascript&quot;&gt;\n/* &lt;![CDATA[ */!function(){try{var t=&quot;currentScript&quot;in document?document.currentScript:function(){for(var t=document.getElementsByTagName(&quot;script&quot;),e=t.length;e--;)if(t[e].getAttribute(&quot;cf-hash&quot;))return t[e]}();if(t&amp;&amp;t.previousSibling){var e,r,n,i,c=t.previousSibling,a=c.getAttribute(&quot;data-cfemail&quot;);if(a){for(e=&quot;&quot;,r=parseInt(a.substr(0,2),16),n=2;a.length-n;n+=2)i=parseInt(a.substr(n,2),16)^r,e+=String.fromCharCode(i);e=document.createTextNode(e),c.parentNode.replaceChild(e,c)}}}catch(u){}}();/* ]]&gt; */&lt;/script&gt;\nFormat settings, CABAC         : Yes\nFormat settings, ReFrames      : 7 frames\nCodec ID                       : 27\nDuration                       : 1h 32mn\nBit rate                       : 1 904 Kbps\nWidth                          : 1 280 pixels\nHeight                         : 720 pixels\nDisplay aspect ratio           : 16:9\nFrame rate                     : 25.000 fps\nColor space                    : YUV\nChroma subsampling             : 4:2:0\nBit depth                      : 8 bits\nScan type                      : Progressive\nBits/(Pixel*Frame)             : 0.083\nStream size                    : 1.22 GiB (90%)\n\nAudio\n\nID                             : 68 (0x44)\nMenu ID                        : 1 (0x1)\nFormat                         : MPEG Audio\nFormat version                 : Version 1\nFormat profile                 : Layer 3\nMode                           : Joint stereo\nMode extension                 : MS Stereo\nCodec ID                       : 3\nDuration                       : 1h 32mn\nBit rate mode                  : Constant\nBit rate                       : 96.0 Kbps\nChannel(s)                     : 2 channels\nSampling rate                  : 44.1 KHz\nCompression mode               : Lossy\nDelay relative to video        : -68ms\nStream size                    : 63.3 MiB (5%)\n\n\nScreens : \n &lt;a href=&quot;\nhttp://i.imgur.com/mwNOgmU.jpg&quot; rel=&quot;nofollow&quot; target=&quot;_NEW&quot;&gt;\nhttp://i.imgur.com/mwNOgmU.jpg&lt;/a&gt;\n &lt;a href=&quot;\nhttp://i.imgur.com/XL2rOvM.jpg&quot; rel=&quot;nofollow&quot; target=&quot;_NEW&quot;&gt;\nhttp://i.imgur.com/XL2rOvM.jpg&lt;/a&gt;\n &lt;a href=&quot;\nhttp://i.imgur.com/j6TNqwG.jpg&quot; rel=&quot;nofollow&quot; target=&quot;_NEW&quot;&gt;\nhttp://i.imgur.com/j6TNqwG.jpg&lt;/a&gt;\n\n\n","torrent":{"xt":"urn:btih:490d901474db6cd323b382e1288beed7173e68c3","amp;dn":"Formula+1+2013+Monaco+Grand+Prix+-+Practice+1+-+Sky+720p","amp;tr":["udp%3A%2F%2Ftracker.openbittorrent.com%3A80","udp%3A%2F%2Fopen.demonii.com%3A1337","udp%3A%2F%2Ftracker.coppersurfer.tk%3A6969","udp%3A%2F%2Fexodus.desync.com%3A6969"],"infoHash":"490d901474db6cd323b382e1288beed7173e68c3","infoHashBuffer":{"type":"Buffer","data":[73,13,144,20,116,219,108,211,35,179,130,225,40,139,238,215,23,62,104,195]},"announce":[],"urlList":[]}}